<?xml version="1.0" encoding="utf-8"?>
<!-- Generator: Adobe Illustrator 25.1.0, SVG Export Plug-In . SVG Version: 6.00 Build 0)  -->
<svg version="1.1" id="Layer_1" xmlns="http://www.w3.org/2000/svg" xmlns:xlink="http://www.w3.org/1999/xlink" x="0px" y="0px"
	 viewBox="0 0 3423.63 648.33" style="enable-background:new 0 0 3423.63 648.33;" xml:space="preserve">
<style type="text/css">
	.st0{fill:#2DC6D6;}
</style>
<path class="st0" d="M2188.87,98.43v109.7h-17.28V98.43H2188.87z"/>
<path class="st0" d="M2273.36,137.42c5.87,5.87,8.72,13.47,8.72,22.83v47.87h-16.33v-45.65c0-12.52-7.77-20.77-19.34-20.77
	c-12.05,0-19.82,8.24-19.82,20.77v45.65h-16.17v-77.99h16.17v11.73c5.23-8.72,13.47-13.16,24.57-13.16
	C2260.21,128.7,2267.5,131.56,2273.36,137.42z"/>
<path class="st0" d="M2351.99,135.2c5.71,4.44,8.56,10.15,8.56,17.12h-15.22c-0.48-6.98-6.5-11.73-15.54-11.73
	c-8.24,0-14.27,4.12-14.27,9.99c0.63,4.91,2.06,7.13,6.82,8.72c3.49,1.27,4.44,1.58,9.35,2.38c7.45,1.43,8.08,1.27,15.54,3.96
	c3.33,1.27,6.02,2.69,7.93,4.12c3.65,3.17,7.29,8.88,7.29,16.01c0,7.13-3.01,12.84-8.88,17.12c-6.02,4.44-13.79,6.66-23.14,6.66
	c-9.35,0-17.12-2.22-23.14-6.82c-6.02-4.6-9.04-10.46-9.19-17.6h15.85c0.16,7.45,7.29,12.36,16.96,12.36
	c9.04,0,15.54-4.44,15.54-10.78c0-3.8-1.43-6.5-5.23-8.08c-3.8-1.59-5.55-1.74-11.41-2.85c-6.18-0.79-9.35-1.43-15.54-3.8
	c-3.17-1.11-5.71-2.54-7.61-4.12c-3.8-3.01-7.13-8.72-7.13-15.69c0-14.11,12.37-23.46,30.6-23.46
	C2338.99,128.7,2346.29,130.92,2351.99,135.2z"/>
<path class="st0" d="M2420.16,130.13v13.63h-17.6v64.36h-16.33v-64.36h-14.43v-13.63h14.43V110h16.33v20.13H2420.16z"/>
<path class="st0" d="M2440.77,118.56c-6.18,0-10.3-3.96-10.3-9.51c0-5.71,4.12-9.51,10.3-9.51c6.18,0,10.3,3.8,10.3,9.51
	C2451.07,114.6,2446.63,118.56,2440.77,118.56z M2432.68,130.13h16.17v77.99h-16.17V130.13z"/>
<path class="st0" d="M2510.04,130.13v13.63h-17.6v64.36h-16.33v-64.36h-14.43v-13.63h14.43V110h16.33v20.13H2510.04z"/>
<path class="st0" d="M2592.95,130.13v45.81c0,9.99-3.33,18.07-9.83,24.25c-6.5,6.18-15.06,9.35-25.68,9.35s-19.18-3.17-25.68-9.35
	c-6.66-6.18-9.99-14.27-9.99-24.25v-45.81h16.17v45.81c0,12.21,7.77,20.13,19.34,20.13c11.89,0,19.5-7.93,19.5-20.13v-45.81H2592.95
	z"/>
<path class="st0" d="M2653.51,130.13v13.63h-17.6v64.36h-16.33v-64.36h-14.43v-13.63h14.43V110h16.33v20.13H2653.51z"/>
<path class="st0" d="M2742.6,174.2h-66.74c2.06,13.16,12.52,22.03,25.84,22.03c10.94,0,20.61-6.82,23.62-16.33h16.49
	c-2.22,8.72-7.13,15.69-14.58,21.24c-7.45,5.55-16.01,8.4-25.68,8.4c-12.05,0-22.03-3.8-29.8-11.41
	c-7.93-7.61-11.89-17.28-11.89-29.01c0-11.73,3.96-21.4,11.89-29.01c7.77-7.61,17.75-11.41,29.8-11.41c12.05,0,22.04,3.8,29.8,11.41
	c7.77,7.61,11.57,17.28,11.73,29.17C2743.08,171.03,2742.92,172.62,2742.6,174.2z M2701.7,142.02c-6.34,0-11.73,1.74-16.33,5.39
	c-4.6,3.65-7.61,8.4-9.04,14.27h51.2c-1.43-5.87-4.44-10.62-9.19-14.27S2708.04,142.02,2701.7,142.02z"/>
<path class="st0" d="M2838.99,128.7c12.05,0,22.04,3.8,29.8,11.41c7.77,7.61,11.73,17.28,11.73,29.01c0,11.73-3.96,21.4-11.73,29.01
	c-7.77,7.61-17.75,11.41-29.8,11.41c-12.05,0-22.03-3.8-29.8-11.41c-7.93-7.61-11.89-17.28-11.89-29.01
	c0-11.73,3.96-21.4,11.89-29.01C2816.95,132.51,2826.94,128.7,2838.99,128.7z M2821.07,150.26c-4.75,4.91-7.13,11.26-7.13,18.86
	c0,7.77,2.38,13.95,7.13,18.86c4.6,4.91,10.62,7.45,17.75,7.45c7.29,0,13.32-2.54,18.07-7.45c4.6-4.91,6.97-11.1,6.97-18.86
	c0-7.61-2.38-13.95-6.97-18.86c-4.76-4.91-10.78-7.45-18.07-7.45C2831.69,142.81,2825.67,145.35,2821.07,150.26z"/>
<path class="st0" d="M2916.19,119.67v10.46h15.38v13.63h-15.38v64.36h-16.17v-64.36h-11.25v-13.63h11.25v-10.46
	c0-13.32,10.62-22.67,25.36-22.67c2.38,0,4.44,0.16,6.18,0.63v14.27c-1.9-0.79-3.96-1.11-6.02-1.11
	C2919.99,110.79,2916.19,114.44,2916.19,119.67z"/>
<path class="st0" d="M2247.05,269.27h-58.18v31.55h53.42v14.74h-53.42v32.66h58.18v15.38h-75.46v-109.7h75.46V269.27z"/>
<path class="st0" d="M2327.26,292.89c5.87,5.87,8.72,13.47,8.72,22.83v47.87h-16.33v-45.65c0-12.52-7.77-20.77-19.34-20.77
	c-12.05,0-19.82,8.24-19.82,20.77v45.65h-16.17v-77.99h16.17v11.73c5.23-8.72,13.47-13.16,24.57-13.16
	C2314.11,284.17,2321.4,287.02,2327.26,292.89z"/>
<path class="st0" d="M2396.38,285.59v13.63h-17.6v64.36h-16.33v-64.36h-14.43v-13.63h14.43v-20.13h16.33v20.13H2396.38z"/>
<path class="st0" d="M2425.07,303.82c5.23-12.84,15.54-20.29,29.33-20.29v16.01c-18.23,0-29.33,9.67-29.33,25.52v38.52h-16.17
	v-77.99h16.17V303.82z"/>
<path class="st0" d="M2542.54,329.66h-66.74c2.06,13.16,12.52,22.03,25.84,22.03c10.94,0,20.61-6.82,23.62-16.33h16.49
	c-2.22,8.72-7.13,15.69-14.58,21.24c-7.45,5.55-16.01,8.4-25.68,8.4c-12.05,0-22.03-3.8-29.8-11.41
	c-7.93-7.61-11.89-17.28-11.89-29.01c0-11.73,3.96-21.4,11.89-29.01c7.77-7.61,17.75-11.41,29.8-11.41c12.05,0,22.04,3.8,29.8,11.41
	c7.77,7.61,11.57,17.28,11.73,29.17C2543.02,326.49,2542.86,328.08,2542.54,329.66z M2501.64,297.48c-6.34,0-11.73,1.74-16.33,5.39
	s-7.61,8.4-9.04,14.27h51.2c-1.43-5.87-4.44-10.62-9.19-14.27S2507.98,297.48,2501.64,297.48z"/>
<path class="st0" d="M2630.21,295.58c7.13,7.61,10.78,17.28,10.78,29.01c0,11.73-3.65,21.4-10.78,29.01
	c-7.13,7.61-16.33,11.41-27.27,11.41c-11.73,0-21.24-4.28-28.53-12.68v42.96h-16.17v-109.7h16.17v11.26
	c7.29-8.4,16.8-12.68,28.53-12.68C2613.88,284.17,2623.07,287.97,2630.21,295.58z M2617.37,343.45c4.6-4.91,6.98-11.1,6.98-18.86
	c0-7.61-2.38-13.95-6.98-18.86c-4.76-4.91-10.78-7.45-17.91-7.45c-7.29,0-13.32,2.54-17.91,7.45c-4.76,4.91-7.13,11.26-7.13,18.86
	c0,7.77,2.38,13.95,7.13,18.86c4.6,4.91,10.62,7.45,17.91,7.45C2606.59,350.91,2612.61,348.37,2617.37,343.45z"/>
<path class="st0" d="M2672.53,303.82c5.23-12.84,15.54-20.29,29.33-20.29v16.01c-18.23,0-29.33,9.67-29.33,25.52v38.52h-16.17
	v-77.99h16.17V303.82z"/>
<path class="st0" d="M2790,329.66h-66.74c2.06,13.16,12.52,22.03,25.84,22.03c10.94,0,20.61-6.82,23.62-16.33h16.49
	c-2.22,8.72-7.13,15.69-14.58,21.24c-7.45,5.55-16.01,8.4-25.68,8.4c-12.05,0-22.03-3.8-29.8-11.41
	c-7.93-7.61-11.89-17.28-11.89-29.01c0-11.73,3.96-21.4,11.89-29.01c7.77-7.61,17.75-11.41,29.8-11.41c12.05,0,22.04,3.8,29.8,11.41
	c7.77,7.61,11.57,17.28,11.73,29.17C2790.48,326.49,2790.32,328.08,2790,329.66z M2749.1,297.48c-6.34,0-11.73,1.74-16.33,5.39
	s-7.61,8.4-9.04,14.27h51.2c-1.43-5.87-4.44-10.62-9.19-14.27S2755.44,297.48,2749.1,297.48z"/>
<path class="st0" d="M2868.63,292.89c5.87,5.87,8.72,13.47,8.72,22.83v47.87h-16.33v-45.65c0-12.52-7.77-20.77-19.34-20.77
	c-12.05,0-19.82,8.24-19.82,20.77v45.65h-16.17v-77.99h16.17v11.73c5.23-8.72,13.47-13.16,24.57-13.16
	C2855.47,284.17,2862.77,287.02,2868.63,292.89z"/>
<path class="st0" d="M2974.53,329.66h-66.74c2.06,13.16,12.52,22.03,25.84,22.03c10.94,0,20.61-6.82,23.62-16.33h16.49
	c-2.22,8.72-7.13,15.69-14.58,21.24c-7.45,5.55-16.01,8.4-25.68,8.4c-12.05,0-22.03-3.8-29.8-11.41
	c-7.93-7.61-11.89-17.28-11.89-29.01c0-11.73,3.96-21.4,11.89-29.01c7.77-7.61,17.75-11.41,29.8-11.41c12.05,0,22.04,3.8,29.8,11.41
	c7.77,7.61,11.57,17.28,11.73,29.17C2975,326.49,2974.84,328.08,2974.53,329.66z M2933.63,297.48c-6.34,0-11.73,1.74-16.33,5.39
	s-7.61,8.4-9.04,14.27h51.2c-1.43-5.87-4.44-10.62-9.19-14.27S2939.97,297.48,2933.63,297.48z"/>
<path class="st0" d="M3060.61,285.59v45.81c0,9.99-3.33,18.07-9.83,24.25c-6.5,6.18-15.06,9.35-25.68,9.35s-19.18-3.17-25.68-9.35
	c-6.66-6.18-9.99-14.27-9.99-24.25v-45.81h16.17v45.81c0,12.21,7.77,20.13,19.34,20.13c11.89,0,19.5-7.93,19.5-20.13v-45.81H3060.61
	z"/>
<path class="st0" d="M3095.96,303.82c5.23-12.84,15.54-20.29,29.33-20.29v16.01c-18.23,0-29.33,9.67-29.33,25.52v38.52h-16.17
	v-77.99h16.17V303.82z"/>
<path class="st0" d="M3187.43,290.67c5.71,4.44,8.56,10.15,8.56,17.12h-15.22c-0.48-6.98-6.5-11.73-15.54-11.73
	c-8.24,0-14.27,4.12-14.27,9.99c0.63,4.91,2.06,7.13,6.82,8.72c3.49,1.27,4.44,1.58,9.35,2.38c7.45,1.43,8.08,1.27,15.54,3.96
	c3.33,1.27,6.02,2.7,7.93,4.12c3.65,3.17,7.29,8.88,7.29,16.01c0,7.13-3.01,12.84-8.88,17.12c-6.02,4.44-13.79,6.66-23.14,6.66
	c-9.35,0-17.12-2.22-23.14-6.82c-6.02-4.6-9.04-10.46-9.19-17.6h15.85c0.16,7.45,7.29,12.37,16.96,12.37
	c9.04,0,15.54-4.44,15.54-10.78c0-3.8-1.43-6.5-5.23-8.08s-5.55-1.74-11.41-2.85c-6.18-0.79-9.35-1.43-15.54-3.8
	c-3.17-1.11-5.71-2.54-7.61-4.12c-3.8-3.01-7.13-8.72-7.13-15.69c0-14.11,12.37-23.46,30.6-23.46
	C3174.43,284.17,3181.72,286.39,3187.43,290.67z"/>
<path class="st0" d="M3277.15,292.89c5.87,5.87,8.72,13.47,8.72,22.83v47.87h-16.33v-45.65c0-12.52-7.77-20.77-19.34-20.77
	c-12.05,0-19.82,8.24-19.82,20.77v45.65h-16.17v-109.7h16.17v43.44c5.23-8.72,13.47-13.16,24.57-13.16
	C3263.99,284.17,3271.29,287.02,3277.15,292.89z"/>
<path class="st0" d="M3312.98,274.02c-6.18,0-10.3-3.96-10.3-9.51c0-5.71,4.12-9.51,10.3-9.51c6.18,0,10.3,3.8,10.3,9.51
	C3323.28,270.06,3318.85,274.02,3312.98,274.02z M3304.9,285.59h16.17v77.99h-16.17V285.59z"/>
<path class="st0" d="M3412.85,295.58c7.13,7.61,10.78,17.28,10.78,29.01c0,11.73-3.65,21.4-10.78,29.01
	c-7.13,7.61-16.33,11.41-27.27,11.41c-11.73,0-21.24-4.28-28.53-12.68v42.96h-16.17v-109.7h16.17v11.26
	c7.29-8.4,16.8-12.68,28.53-12.68C3396.52,284.17,3405.72,287.97,3412.85,295.58z M3400.01,343.45c4.6-4.91,6.98-11.1,6.98-18.86
	c0-7.61-2.38-13.95-6.98-18.86c-4.76-4.91-10.78-7.45-17.91-7.45c-7.29,0-13.32,2.54-17.91,7.45c-4.76,4.91-7.13,11.26-7.13,18.86
	c0,7.77,2.38,13.95,7.13,18.86c4.6,4.91,10.62,7.45,17.91,7.45C3389.23,350.91,3395.25,348.37,3400.01,343.45z"/>
<path class="st0" d="M2246.89,437.35v15.38h-33.61v94.32H2196v-94.32h-33.61v-15.38H2246.89z"/>
<path class="st0" d="M2344.54,437.35v69.43c0,12.52-3.96,22.51-11.89,30.12c-7.93,7.77-18.23,11.57-31.07,11.57
	c-12.84,0-23.14-3.8-31.07-11.57c-7.93-7.61-11.89-17.6-11.89-30.12v-69.43h17.28v68.64c0,16.01,10.3,26.63,25.68,26.63
	s25.68-10.62,25.68-26.63v-68.64H2344.54z"/>
<path class="st0" d="M2475.96,437.35h17.28v109.7h-17.28v-46.76h-49.62v46.76h-17.28v-109.7h17.28v47.56h49.62V437.35z"/>
<path class="st0" d="M2593.43,547.05l-8.72-23.62h-51.36l-8.72,23.62h-18.55l42.48-109.7h20.92l42.64,109.7H2593.43z
	 M2538.58,509.16h40.9l-20.45-55.01L2538.58,509.16z"/>
<path class="st0" d="M2717.24,437.35h25.52v109.7h-17.28v-88.61l-33.77,88.61h-15.85l-33.77-88.61v88.61h-17.28v-109.7h25.52
	l33.45,87.35L2717.24,437.35z"/>
<path class="st0" d="M2850.4,518.2c0,8.56-2.7,15.54-8.24,20.77c-5.55,5.39-12.68,8.08-21.4,8.08h-54.69v-109.7h49.78
	c8.72,0,16.01,2.54,21.56,7.61c5.55,5.23,8.4,11.89,8.4,20.13c0,11.89-6.66,21.4-17.28,25.36
	C2841.84,493.47,2850.4,504.09,2850.4,518.2z M2812.51,452.41h-29.17v32.5h29.17c9.51,0,16.33-6.97,16.33-16.49
	C2828.84,459.07,2822.02,452.41,2812.51,452.41z M2816.48,531.99c9.35,0,16.33-6.98,16.33-16.65s-6.97-16.64-16.33-16.64h-33.13
	v33.29H2816.48z"/>
<path class="st0" d="M2951.22,437.35v69.43c0,12.52-3.96,22.51-11.89,30.12c-7.93,7.77-18.23,11.57-31.07,11.57
	c-12.84,0-23.14-3.8-31.07-11.57c-7.93-7.61-11.89-17.6-11.89-30.12v-69.43h17.28v68.64c0,16.01,10.3,26.63,25.68,26.63
	s25.68-10.62,25.68-26.63v-68.64H2951.22z"/>
<path class="st0" d="M3057.75,547.05h-18.07c-0.79-3.65-1.27-11.1-1.43-22.35c-0.48-12.21-6.82-20.29-17.12-20.29h-31.7v42.64
	h-17.28v-109.7h49.3c21.4,0,35.03,12.05,35.03,31.07c0,13.47-6.98,23.78-19.02,28.22c11.57,3.49,17.6,12.21,18.07,26
	C3056.01,535.48,3056.64,543.72,3057.75,547.05z M3019.71,490.46c11.57,0,19.02-7.45,19.02-19.02c0-11.57-7.13-18.71-19.02-18.71
	h-30.28v37.73H3019.71z"/>
<path class="st0" d="M3183.94,487.44c0,0.79,0.16,3.49,0.16,4.6c0,16.49-5.23,29.96-15.85,40.58s-24.25,15.85-40.9,15.85
	c-16.49,0-30.12-5.39-40.74-16.01c-10.78-10.62-16.17-24.1-16.17-40.42s5.39-29.64,16.17-40.26c10.62-10.62,24.25-15.85,40.74-15.85
	c13.79,0,25.84,3.96,35.99,11.73s16.49,17.91,19.02,30.44h-18.07c-4.6-16.49-18.55-27.11-36.78-27.11
	c-11.57,0-20.93,3.8-28.38,11.57c-7.45,7.77-11.1,17.6-11.1,29.49c0,11.89,3.65,21.72,11.1,29.49c7.45,7.77,16.8,11.73,28.38,11.73
	c9.99,0,18.39-2.85,25.36-8.72c6.98-5.87,11.1-13.32,12.52-22.51h-37.89v-14.58H3183.94z"/>
<g>
	<polygon class="st0" points="2007.04,98.9 1917.04,98.9 1827.04,98.9 1737.04,98.9 1647.04,98.9 1647.04,188.9 1737.04,188.9 
		1827.04,188.9 1827.04,278.9 1827.04,368.9 1917.04,368.9 1917.04,278.9 1917.04,188.9 2007.04,188.9 2097.04,188.9 2097.04,98.9 	
		"/>
	<path class="st0" d="M2007.04,278.9v36v9c0,74.56-60.44,135-135,135s-135-60.44-135-135v-9v-36h-85.49h-4.51v36h0.19
		c-0.12,2.99-0.19,5.98-0.19,9c0,124.26,100.74,225,225,225s225-100.74,225-225c0-3.02-0.08-6.01-0.19-9h0.19v-36h-4.51H2007.04z"/>
</g>
<path class="st0" d="M338.52,259.86"/>
<g>
	<path class="st0" d="M457.65,116.23c14.58,12.58,21.73,28.88,22.02,48.61h-47.18c-0.29-16.87-12.58-28.02-30.88-28.02
		c-16.3,0-27.74,8.01-27.74,20.59c0,18.87,27.74,20.3,55.76,26.88c19.45,4.86,36.32,9.72,47.47,25.45
		c5.43,8.01,8.29,17.73,8.29,29.45c0,19.45-7.72,34.89-23.16,46.04c-15.73,11.44-35.75,17.16-60.62,17.16
		c-24.31,0-43.75-6.29-58.91-18.59s-23.16-28.88-23.45-49.76h48.61c0.29,16.87,14.3,28.88,36.03,28.88
		c18.59,0,32.03-8.86,32.03-21.73c-0.29-18.3-27.74-19.45-55.76-26.59c-19.45-5.15-36.32-9.44-47.47-25.17
		c-5.43-7.72-8.29-17.44-8.29-28.88c0-19.16,7.15-34.6,21.73-46.04c14.58-11.44,33.46-17.16,56.62-17.16
		C424.76,97.36,443.07,103.65,457.65,116.23z"/>
	<path class="st0" d="M654.96,100.22v42.89h-55.19v156.42h-48.61V143.11h-55.19v-42.89H654.96z"/>
	<path class="st0" d="M791.65,299.53l-10.29-31.17h-79.5l-10.29,31.17h-52.33l72.92-199.32h58.91l72.92,199.32H791.65z
		 M714.72,228.33h53.48l-26.59-81.21L714.72,228.33z"/>
	<path class="st0" d="M1032.99,299.53h-50.62c-0.57-2.57-1.43-14.58-2.29-35.46c-0.86-19.73-9.44-32.31-23.16-32.31h-44.9v67.77
		h-48.61V100.22h96.94c20.88,0,37.75,5.43,50.33,16.01c12.58,10.58,18.87,24.88,18.87,42.9c0,23.16-11.44,41.46-31.74,50.9
		c19.45,6.86,29.74,22.88,31.17,47.76C1029.85,279.8,1030.99,293.81,1032.99,299.53z M954.93,192.58c15.16,0,24.88-9.72,24.88-24.88
		c0-15.16-9.72-24.59-24.88-24.59h-42.9v49.47H954.93z"/>
	<path class="st0" d="M1204.28,100.22v42.89h-55.19v156.42h-48.61V143.11h-55.19v-42.89H1204.28z"/>
	<path class="st0" d="M1384.72,100.22v127.54c0,22.02-7.44,39.75-22.59,53.76c-15.16,14.01-34.32,20.88-58.05,20.88
		c-23.73,0-43.47-6.86-58.62-20.88c-15.16-14.01-22.88-31.74-22.88-53.76V100.22h48.61v124.97c0,19.45,13.44,32.6,32.6,32.6
		c19.16,0,32.6-13.15,32.6-32.6V100.22H1384.72z"/>
	<path class="st0" d="M1508.82,100.22c20.3,0,37.18,6.29,50.33,19.16c13.15,12.87,19.73,29.17,19.73,49.19
		c0,20.02-6.58,36.32-19.73,49.19c-13.15,12.87-30.03,19.16-50.33,19.16h-42.9v62.63h-48.61V100.22H1508.82z M1503.38,195.73
		c15.16,0,26.02-11.44,26.02-26.59s-10.29-26.02-26.02-26.02h-37.46v52.62H1503.38z"/>
	<path class="st0" d="M135.38,369.95H25.28v66.63h100.66v19.73H25.28v69.49h110.1v20.59H2.12V349.07h133.26V369.95z"/>
	<path class="st0" d="M287.79,349.07h23.16v197.32h-30.03L179.12,379.1v167.29h-23.16V349.07h30.03l101.8,167.29V349.07z"/>
	<path class="st0" d="M533.14,441.15c0.29,0.86,0.29,3.15,0.29,6.29c0,29.46-9.44,53.76-28.31,72.92
		c-18.87,19.16-43.18,28.6-73.21,28.6c-29.45,0-54.05-9.72-73.21-28.88c-19.16-19.16-28.88-43.18-28.88-72.64
		c0-29.45,9.72-53.47,28.88-72.35c19.16-18.87,43.75-28.31,73.21-28.31c24.88,0,46.61,7.15,64.63,21.16
		c18.02,14.3,29.45,32.6,34.03,55.19h-24.31c-8.86-34.03-37.46-56.05-74.35-56.05c-22.59,0-41.47,7.43-56.05,22.59
		c-14.87,15.16-22.31,34.6-22.31,57.76c0,23.45,7.44,42.9,22.31,58.05c14.58,15.16,33.46,22.88,56.05,22.88
		c20.59,0,38.03-6.29,52.33-19.16c14.3-12.58,22.31-28.88,24.02-48.61h-76.35v-19.45H533.14z"/>
	<path class="st0" d="M575.17,349.07v197.32h-23.16V349.07H575.17z"/>
	<path class="st0" d="M737.03,349.07h23.16v197.32h-30.03L628.36,379.1v167.29H605.2V349.07h30.03l101.8,167.29V349.07z"/>
	<path class="st0" d="M923.18,369.95h-110.1v66.63h100.66v19.73H813.09v69.49h110.1v20.59H789.92V349.07h133.26V369.95z"/>
	<path class="st0" d="M1077.03,369.95h-110.1v66.63h100.66v19.73H966.93v69.49h110.1v20.59H943.77V349.07h133.26V369.95z"/>
	<path class="st0" d="M1245.17,546.39h-24.31c-1.43-6.29-2.57-20.59-2.86-42.61c-0.29-23.74-13.44-38.32-34.03-38.32h-63.2v80.93
		h-23.16V349.07h85.5c36.89,0,60.34,21.45,60.34,54.91c0,24.88-13.44,43.18-35.46,50.9c20.59,5.43,32.89,21.73,33.17,46.61
		C1241.45,524.37,1242.88,539.24,1245.17,546.39z M1180.83,446.3c23.74,0,38.61-14.87,38.61-38.61c0-23.16-14.87-37.75-38.61-37.75
		h-60.05v76.35H1180.83z"/>
	<path class="st0" d="M1297.78,532.66c0,9.15-6.86,15.73-16.3,15.73c-9.44,0-16.59-6.58-16.59-15.73c0-9.44,6.58-15.73,16.59-15.73
		C1290.92,516.94,1297.78,523.23,1297.78,532.66z"/>
	<path class="st0" d="M1349.54,349.07v197.32h-23.16V349.07H1349.54z"/>
	<path class="st0" d="M1470.78,346.79c29.45,0,54.05,9.44,73.21,28.31c19.16,18.87,28.88,42.89,28.88,72.35
		c0,29.46-9.72,53.48-28.88,72.64c-19.16,19.16-43.75,28.88-73.21,28.88c-29.45,0-54.05-9.72-73.21-28.88
		c-19.16-19.16-28.88-43.18-28.88-72.64c0-29.45,9.72-53.47,28.88-72.35C1416.73,356.22,1441.33,346.79,1470.78,346.79z
		 M1470.78,367.95c-22.59,0-41.47,7.44-56.05,22.31c-14.87,15.16-22.31,34.03-22.31,57.19c0,23.16,7.44,42.32,22.31,57.48
		c14.58,15.16,33.46,22.59,56.05,22.59c22.59,0,41.18-7.43,56.05-22.59c14.58-15.16,22.02-34.32,22.02-57.48
		c0-23.16-7.44-42.04-22.02-57.19C1512.25,375.38,1493.37,367.95,1470.78,367.95z"/>
</g>
<g>
	<path class="st0" d="M177.31,192.13l23.74-14.61l-11.92-30.86l-27.42,5.14c-3.34-4.38-7.19-8.41-11.48-12.03l6.47-27.16
		l-30.24-13.39l-15.76,23.04c-5.57-0.74-11.14-0.88-16.63-0.42L79.44,98.08L48.58,110l5.14,27.4c-4.39,3.35-8.44,7.2-12.07,11.5
		l-27.12-6.46L1.14,172.68l22.98,15.72c-0.75,5.59-0.89,11.2-0.42,16.72L0,219.69l11.92,30.86l27.32-5.12
		c3.36,4.41,7.24,8.48,11.56,12.13l-6.44,27.04l30.24,13.39l15.7-22.94c5.61,0.75,11.22,0.88,16.75,0.41l14.57,23.67l30.86-11.92
		l-5.13-27.34c4.4-3.36,8.46-7.23,12.09-11.55l27.08,6.45l13.39-30.24l-23.01-15.74C177.65,203.22,177.78,197.63,177.31,192.13z
		 M99.48,242.9c-24.46-0.58-43.83-20.88-43.25-45.34s20.88-43.83,45.34-43.25c24.46,0.58,43.83,20.88,43.25,45.34
		C144.24,224.12,123.94,243.48,99.48,242.9z"/>
	<g>
		<path class="st0" d="M87.24,176.68c4.16,0,7.41,1.48,9.76,4.45c2.79,3.52,4.19,9.35,4.19,17.49c0,8.13-1.41,13.96-4.22,17.52
			c-2.32,2.93-5.57,4.39-9.73,4.39c-4.18,0-7.55-1.61-10.11-4.82c-2.56-3.21-3.84-8.94-3.84-17.18c0-8.09,1.41-13.91,4.22-17.46
			C79.84,178.14,83.08,176.68,87.24,176.68z M87.24,183.5c-1,0-1.89,0.32-2.67,0.95c-0.78,0.63-1.39,1.77-1.82,3.41
			c-0.57,2.13-0.85,5.71-0.85,10.75s0.25,8.5,0.76,10.39c0.51,1.89,1.15,3.14,1.92,3.76c0.77,0.63,1.66,0.94,2.65,0.94
			s1.88-0.32,2.67-0.95c0.78-0.63,1.39-1.77,1.82-3.41c0.57-2.11,0.85-5.68,0.85-10.72s-0.25-8.5-0.76-10.39
			c-0.51-1.88-1.15-3.14-1.92-3.78C89.12,183.82,88.24,183.5,87.24,183.5z"/>
		<path class="st0" d="M127.76,219.8h-8.23v-31.03c-3.01,2.81-6.55,4.89-10.63,6.24v-7.47c2.15-0.7,4.48-2.04,7-4
			s4.25-4.25,5.19-6.87h6.68V219.8z"/>
	</g>
	<g>
		<path class="st0" d="M226.69,284.82c17.31-1.87,29.88-17.47,28.01-34.79s-17.47-29.88-34.79-28.01c-1.17,0.13-2.31,0.32-3.44,0.56
			l4.34,5.49c13.89-1.37,26.31,8.71,27.81,22.61c1.51,13.98-8.6,26.54-22.59,28.05c-9.74,1.05-18.79-3.54-23.9-11.16l-3.87,5.07
			C204.76,281.08,215.36,286.04,226.69,284.82z"/>
		<path class="st0" d="M274.01,247.95c-0.42-3.91-1.28-7.66-2.51-11.22l12.17-12.56l-13.95-19.08l-15.9,7.51
			c-6.09-4.54-13.19-7.74-20.84-9.21l-5.16-16.85l-23.5,2.54l-1.05,16.8l4.35,5.51l1.47-0.63l1.01-16.15l13.35-1.44l4.76,15.54
			l3.61,0.69c6.59,1.26,12.93,4.07,18.34,8.11l2.95,2.2l14.66-6.93l7.93,10.84l-11.2,11.56l1.23,3.55c1.1,3.18,1.84,6.51,2.21,9.88
			c0.36,3.37,0.35,6.78-0.05,10.12l-0.43,3.65l13.31,9.22l-5.43,12.29l-15.65-3.93l-2.46,2.84c-4.42,5.1-10.02,9.19-16.18,11.83
			l-3.38,1.45l-1.33,16.19l-13.35,1.44l-4.43-15.56l-3.69-0.71c-6.57-1.27-12.9-4.08-18.3-8.11l-3.01-2.25l-14.55,7.23l-7.93-10.84
			l7.83-8.4l-5.47-3.1l-10.28,11.03l13.95,19.08l15.8-7.85c6.08,4.54,13.17,7.74,20.8,9.22l4.82,16.9l23.5-2.54l1.44-17.56
			c7.16-3.07,13.42-7.71,18.4-13.45l17.01,4.27l9.55-21.62l-14.44-10C274.4,255.7,274.43,251.85,274.01,247.95z"/>
	</g>
</g>
<g>
</g>
<g>
</g>
<g>
</g>
<g>
</g>
<g>
</g>
<g>
</g>
<g>
</g>
<g>
</g>
<g>
</g>
<g>
</g>
<g>
</g>
<g>
</g>
<g>
</g>
<g>
</g>
<g>
</g>
</svg>
