<?xml version="1.0" encoding="utf-8"?>
<!-- Generator: Adobe Illustrator 25.1.0, SVG Export Plug-In . SVG Version: 6.00 Build 0)  -->
<svg version="1.1" id="Layer_1" xmlns="http://www.w3.org/2000/svg" xmlns:xlink="http://www.w3.org/1999/xlink" x="0px" y="0px"
	 viewBox="0 0 3316.09 451.61" style="enable-background:new 0 0 3316.09 451.61;" xml:space="preserve">
<style type="text/css">
	.st0{fill:#2DC6D6;}
</style>
<g>
	<polygon class="st0" points="2007.04,1.54 1917.04,1.54 1827.04,1.54 1737.04,1.54 1647.04,1.54 1647.04,91.54 1737.04,91.54 
		1827.04,91.54 1827.04,181.54 1827.04,271.54 1917.04,271.54 1917.04,181.54 1917.04,91.54 2007.04,91.54 2097.04,91.54 
		2097.04,1.54 	"/>
	<path class="st0" d="M2007.04,181.54v36v9c0,74.56-60.44,135-135,135s-135-60.44-135-135v-9v-36h-85.49h-4.51v36h0.19
		c-0.12,2.99-0.19,5.98-0.19,9c0,124.26,100.74,225,225,225s225-100.74,225-225c0-3.02-0.08-6.01-0.19-9h0.19v-36h-4.51H2007.04z"/>
</g>
<g>
	<path class="st0" d="M2186.45,1.61v100.36h-15.81V1.61H2186.45z"/>
	<path class="st0" d="M2263.75,37.29c5.37,5.37,7.98,12.33,7.98,20.89v43.8h-14.94V60.21c0-11.46-7.11-19-17.69-19
		c-11.02,0-18.13,7.54-18.13,19v41.77h-14.79V30.62h14.79v10.73c4.79-7.98,12.33-12.04,22.48-12.04
		C2251.72,29.32,2258.39,31.93,2263.75,37.29z"/>
	<path class="st0" d="M2335.69,35.26c5.22,4.06,7.83,9.28,7.83,15.66h-13.92c-0.43-6.38-5.95-10.73-14.21-10.73
		c-7.54,0-13.05,3.77-13.05,9.14c0.58,4.5,1.89,6.53,6.24,7.98c3.19,1.16,4.06,1.45,8.56,2.18c6.82,1.31,7.4,1.16,14.21,3.63
		c3.04,1.16,5.51,2.47,7.25,3.77c3.34,2.9,6.67,8.12,6.67,14.65c0,6.53-2.76,11.75-8.12,15.66c-5.51,4.06-12.62,6.09-21.17,6.09
		c-8.56,0-15.66-2.03-21.17-6.24c-5.51-4.21-8.27-9.57-8.41-16.1h14.5c0.15,6.82,6.67,11.31,15.52,11.31
		c8.27,0,14.21-4.06,14.21-9.86c0-3.48-1.31-5.95-4.79-7.4s-5.08-1.6-10.44-2.61c-5.66-0.73-8.56-1.31-14.21-3.48
		c-2.9-1.02-5.22-2.32-6.96-3.77c-3.48-2.76-6.53-7.98-6.53-14.36c0-12.91,11.31-21.47,27.99-21.47
		C2323.8,29.32,2330.47,31.35,2335.69,35.26z"/>
	<path class="st0" d="M2398.05,30.62v12.47h-16.1v58.88h-14.94V43.09h-13.2V30.62h13.2V12.2h14.94v18.42H2398.05z"/>
	<path class="st0" d="M2416.9,20.03c-5.66,0-9.43-3.63-9.43-8.7c0-5.22,3.77-8.7,9.43-8.7s9.43,3.48,9.43,8.7
		C2426.33,16.41,2422.27,20.03,2416.9,20.03z M2409.51,30.62h14.79v71.36h-14.79V30.62z"/>
	<path class="st0" d="M2480.28,30.62v12.47h-16.1v58.88h-14.94V43.09h-13.2V30.62h13.2V12.2h14.94v18.42H2480.28z"/>
	<path class="st0" d="M2556.13,30.62v41.92c0,9.14-3.04,16.53-8.99,22.19c-5.95,5.66-13.78,8.56-23.5,8.56
		c-9.72,0-17.55-2.9-23.5-8.56c-6.09-5.66-9.14-13.05-9.14-22.19V30.62h14.79v41.92c0,11.17,7.11,18.42,17.69,18.42
		c10.88,0,17.84-7.25,17.84-18.42V30.62H2556.13z"/>
	<path class="st0" d="M2611.53,30.62v12.47h-16.1v58.88h-14.94V43.09h-13.2V30.62h13.2V12.2h14.94v18.42H2611.53z"/>
	<path class="st0" d="M2693.04,70.94h-61.06c1.88,12.04,11.46,20.16,23.64,20.16c10.01,0,18.85-6.24,21.61-14.94h15.08
		c-2.03,7.98-6.53,14.36-13.34,19.44c-6.82,5.08-14.65,7.69-23.5,7.69c-11.02,0-20.16-3.48-27.27-10.44
		c-7.25-6.96-10.88-15.81-10.88-26.54c0-10.73,3.62-19.58,10.88-26.54c7.11-6.96,16.24-10.44,27.27-10.44s20.16,3.48,27.27,10.44
		c7.11,6.96,10.59,15.81,10.73,26.69C2693.48,68.04,2693.33,69.49,2693.04,70.94z M2655.62,41.5c-5.8,0-10.73,1.6-14.94,4.93
		s-6.96,7.69-8.27,13.05h46.85c-1.31-5.37-4.06-9.72-8.41-13.05C2666.5,43.09,2661.43,41.5,2655.62,41.5z"/>
	<path class="st0" d="M2781.22,29.32c11.02,0,20.16,3.48,27.27,10.44c7.11,6.96,10.73,15.81,10.73,26.54
		c0,10.73-3.63,19.58-10.73,26.54c-7.11,6.96-16.24,10.44-27.27,10.44s-20.16-3.48-27.27-10.44c-7.25-6.96-10.88-15.81-10.88-26.54
		c0-10.73,3.62-19.58,10.88-26.54C2761.06,32.8,2770.2,29.32,2781.22,29.32z M2764.83,49.04c-4.35,4.5-6.53,10.3-6.53,17.26
		c0,7.11,2.17,12.76,6.53,17.26c4.21,4.5,9.72,6.82,16.24,6.82c6.67,0,12.18-2.32,16.53-6.82c4.21-4.5,6.38-10.15,6.38-17.26
		c0-6.96-2.18-12.76-6.38-17.26c-4.35-4.5-9.86-6.82-16.53-6.82C2774.55,42.22,2769.04,44.55,2764.83,49.04z"/>
	<path class="st0" d="M2851.85,21.05v9.57h14.07v12.47h-14.07v58.88h-14.79V43.09h-10.3V30.62h10.3v-9.57
		c0-12.18,9.72-20.74,23.21-20.74c2.18,0,4.06,0.15,5.66,0.58v13.05c-1.74-0.73-3.63-1.02-5.51-1.02
		C2855.33,12.93,2851.85,16.26,2851.85,21.05z"/>
	<path class="st0" d="M2239.68,189.72h-53.23v28.86h48.88v13.49h-48.88v29.88h53.23v14.07h-69.04V175.65h69.04V189.72z"/>
	<path class="st0" d="M2313.06,211.33c5.37,5.37,7.98,12.33,7.98,20.89v43.8h-14.94v-41.77c0-11.46-7.11-19-17.69-19
		c-11.02,0-18.13,7.54-18.13,19v41.77h-14.79v-71.36h14.79v10.73c4.79-7.98,12.33-12.04,22.48-12.04
		C2301.03,203.36,2307.7,205.97,2313.06,211.33z"/>
	<path class="st0" d="M2376.3,204.66v12.47h-16.1v58.88h-14.94v-58.88h-13.2v-12.47h13.2v-18.42h14.94v18.42H2376.3z"/>
	<path class="st0" d="M2402.55,221.34c4.79-11.75,14.21-18.56,26.83-18.56v14.65c-16.68,0-26.83,8.85-26.83,23.35v35.24h-14.79
		v-71.36h14.79V221.34z"/>
	<path class="st0" d="M2510.02,244.98h-61.06c1.88,12.04,11.46,20.16,23.64,20.16c10.01,0,18.85-6.24,21.61-14.94h15.08
		c-2.03,7.98-6.53,14.36-13.34,19.43c-6.82,5.08-14.65,7.69-23.5,7.69c-11.02,0-20.16-3.48-27.27-10.44
		c-7.25-6.96-10.88-15.81-10.88-26.54s3.62-19.58,10.88-26.54c7.11-6.96,16.24-10.44,27.27-10.44s20.16,3.48,27.27,10.44
		c7.11,6.96,10.59,15.81,10.73,26.69C2510.45,242.08,2510.31,243.53,2510.02,244.98z M2472.6,215.54c-5.8,0-10.73,1.6-14.94,4.93
		c-4.21,3.34-6.96,7.69-8.27,13.05h46.85c-1.31-5.37-4.06-9.72-8.41-13.05C2483.47,217.13,2478.4,215.54,2472.6,215.54z"/>
	<path class="st0" d="M2590.22,213.8c6.53,6.96,9.86,15.81,9.86,26.54s-3.34,19.58-9.86,26.54c-6.53,6.96-14.94,10.44-24.95,10.44
		c-10.73,0-19.43-3.92-26.11-11.6v39.3h-14.79V204.66h14.79v10.3c6.67-7.69,15.37-11.6,26.11-11.6
		C2575.28,203.36,2583.69,206.84,2590.22,213.8z M2578.47,257.6c4.21-4.5,6.38-10.15,6.38-17.26c0-6.96-2.18-12.76-6.38-17.26
		c-4.35-4.5-9.86-6.82-16.39-6.82c-6.67,0-12.18,2.32-16.39,6.82c-4.35,4.5-6.53,10.3-6.53,17.26c0,7.11,2.18,12.76,6.53,17.26
		c4.21,4.5,9.72,6.82,16.39,6.82C2568.61,264.42,2574.12,262.1,2578.47,257.6z"/>
	<path class="st0" d="M2628.94,221.34c4.79-11.75,14.21-18.56,26.83-18.56v14.65c-16.68,0-26.83,8.85-26.83,23.35v35.24h-14.79
		v-71.36h14.79V221.34z"/>
	<path class="st0" d="M2736.41,244.98h-61.06c1.88,12.04,11.46,20.16,23.64,20.16c10.01,0,18.85-6.24,21.61-14.94h15.08
		c-2.03,7.98-6.53,14.36-13.34,19.43c-6.82,5.08-14.65,7.69-23.5,7.69c-11.02,0-20.16-3.48-27.27-10.44
		c-7.25-6.96-10.88-15.81-10.88-26.54s3.62-19.58,10.88-26.54c7.11-6.96,16.24-10.44,27.27-10.44s20.16,3.48,27.27,10.44
		c7.11,6.96,10.59,15.81,10.73,26.69C2736.84,242.08,2736.7,243.53,2736.41,244.98z M2698.99,215.54c-5.8,0-10.73,1.6-14.94,4.93
		s-6.96,7.69-8.27,13.05h46.85c-1.31-5.37-4.06-9.72-8.41-13.05C2709.87,217.13,2704.79,215.54,2698.99,215.54z"/>
	<path class="st0" d="M2808.34,211.33c5.37,5.37,7.98,12.33,7.98,20.89v43.8h-14.94v-41.77c0-11.46-7.11-19-17.69-19
		c-11.02,0-18.13,7.54-18.13,19v41.77h-14.79v-71.36h14.79v10.73c4.79-7.98,12.33-12.04,22.48-12.04
		C2796.3,203.36,2802.98,205.97,2808.34,211.33z"/>
	<path class="st0" d="M2905.22,244.98h-61.06c1.88,12.04,11.46,20.16,23.64,20.16c10.01,0,18.85-6.24,21.61-14.94h15.08
		c-2.03,7.98-6.53,14.36-13.34,19.43c-6.82,5.08-14.65,7.69-23.5,7.69c-11.02,0-20.16-3.48-27.27-10.44
		c-7.25-6.96-10.88-15.81-10.88-26.54s3.62-19.58,10.88-26.54c7.11-6.96,16.24-10.44,27.27-10.44s20.16,3.48,27.27,10.44
		c7.11,6.96,10.59,15.81,10.73,26.69C2905.66,242.08,2905.51,243.53,2905.22,244.98z M2867.8,215.54c-5.8,0-10.73,1.6-14.94,4.93
		s-6.96,7.69-8.27,13.05h46.85c-1.31-5.37-4.06-9.72-8.41-13.05C2878.68,217.13,2873.61,215.54,2867.8,215.54z"/>
	<path class="st0" d="M2983.97,204.66v41.91c0,9.14-3.04,16.53-8.99,22.19c-5.95,5.66-13.78,8.56-23.5,8.56
		c-9.72,0-17.55-2.9-23.5-8.56c-6.09-5.66-9.14-13.05-9.14-22.19v-41.91h14.79v41.91c0,11.17,7.11,18.42,17.69,18.42
		c10.88,0,17.84-7.25,17.84-18.42v-41.91H2983.97z"/>
	<path class="st0" d="M3016.31,221.34c4.79-11.75,14.21-18.56,26.83-18.56v14.65c-16.68,0-26.83,8.85-26.83,23.35v35.24h-14.79
		v-71.36h14.79V221.34z"/>
	<path class="st0" d="M3100,209.3c5.22,4.06,7.83,9.28,7.83,15.66h-13.92c-0.43-6.38-5.95-10.73-14.21-10.73
		c-7.54,0-13.05,3.77-13.05,9.14c0.58,4.5,1.89,6.53,6.24,7.98c3.19,1.16,4.06,1.45,8.56,2.18c6.82,1.31,7.4,1.16,14.21,3.63
		c3.04,1.16,5.51,2.47,7.25,3.77c3.34,2.9,6.67,8.12,6.67,14.65c0,6.53-2.76,11.75-8.12,15.66c-5.51,4.06-12.62,6.09-21.17,6.09
		c-8.56,0-15.66-2.03-21.17-6.24c-5.51-4.21-8.27-9.57-8.41-16.1h14.5c0.15,6.82,6.67,11.31,15.52,11.31
		c8.27,0,14.21-4.06,14.21-9.86c0-3.48-1.31-5.95-4.79-7.4s-5.08-1.6-10.44-2.61c-5.66-0.73-8.56-1.31-14.21-3.48
		c-2.9-1.01-5.22-2.32-6.96-3.77c-3.48-2.76-6.53-7.98-6.53-14.36c0-12.91,11.31-21.47,27.99-21.47
		C3088.1,203.36,3094.77,205.39,3100,209.3z"/>
	<path class="st0" d="M3182.08,211.33c5.37,5.37,7.98,12.33,7.98,20.89v43.8h-14.94v-41.77c0-11.46-7.11-19-17.69-19
		c-11.02,0-18.13,7.54-18.13,19v41.77h-14.79V175.65h14.79v39.74c4.79-7.98,12.33-12.04,22.48-12.04
		C3170.04,203.36,3176.72,205.97,3182.08,211.33z"/>
	<path class="st0" d="M3214.86,194.07c-5.66,0-9.43-3.63-9.43-8.7c0-5.22,3.77-8.7,9.43-8.7s9.43,3.48,9.43,8.7
		C3224.29,190.45,3220.22,194.07,3214.86,194.07z M3207.46,204.66h14.79v71.36h-14.79V204.66z"/>
	<path class="st0" d="M3306.23,213.8c6.53,6.96,9.86,15.81,9.86,26.54s-3.34,19.58-9.86,26.54c-6.53,6.96-14.94,10.44-24.95,10.44
		c-10.73,0-19.43-3.92-26.11-11.6v39.3h-14.79V204.66h14.79v10.3c6.67-7.69,15.37-11.6,26.11-11.6
		C3291.29,203.36,3299.7,206.84,3306.23,213.8z M3294.48,257.6c4.21-4.5,6.38-10.15,6.38-17.26c0-6.96-2.17-12.76-6.38-17.26
		c-4.35-4.5-9.86-6.82-16.39-6.82c-6.67,0-12.18,2.32-16.39,6.82c-4.35,4.5-6.53,10.3-6.53,17.26c0,7.11,2.18,12.76,6.53,17.26
		c4.21,4.5,9.72,6.82,16.39,6.82C3284.62,264.42,3290.13,262.1,3294.48,257.6z"/>
	<path class="st0" d="M2239.54,349.69v14.07h-30.75v86.3h-15.81v-86.3h-30.75v-14.07H2239.54z"/>
	<path class="st0" d="M2328.87,349.69v63.53c0,11.46-3.63,20.59-10.88,27.56c-7.25,7.11-16.68,10.59-28.43,10.59
		s-21.17-3.48-28.43-10.59c-7.25-6.96-10.88-16.1-10.88-27.56v-63.53h15.81v62.8c0,14.65,9.43,24.37,23.5,24.37
		s23.5-9.72,23.5-24.37v-62.8H2328.87z"/>
	<path class="st0" d="M2449.1,349.69h15.81v100.36h-15.81v-42.79h-45.4v42.79h-15.81V349.69h15.81v43.51h45.4V349.69z"/>
	<path class="st0" d="M2556.57,450.06l-7.98-21.61h-46.99l-7.98,21.61h-16.97l38.87-100.36h19.14l39.01,100.36H2556.57z
		 M2506.39,415.39h37.42l-18.71-50.33L2506.39,415.39z"/>
	<path class="st0" d="M2669.84,349.69h23.35v100.36h-15.81v-81.07l-30.89,81.07h-14.5l-30.89-81.07v81.07h-15.81V349.69h23.35
		l30.6,79.91L2669.84,349.69z"/>
	<path class="st0" d="M2791.67,423.66c0,7.83-2.47,14.21-7.54,19c-5.08,4.93-11.6,7.4-19.58,7.4h-50.04V349.69h45.54
		c7.98,0,14.65,2.32,19.72,6.96c5.08,4.79,7.69,10.88,7.69,18.42c0,10.88-6.09,19.58-15.81,23.21
		C2783.83,401.03,2791.67,410.75,2791.67,423.66z M2757,363.47h-26.69v29.73H2757c8.7,0,14.94-6.38,14.94-15.08
		C2771.94,369.56,2765.7,363.47,2757,363.47z M2760.63,436.28c8.56,0,14.94-6.38,14.94-15.23c0-8.85-6.38-15.23-14.94-15.23h-30.31
		v30.46H2760.63z"/>
	<path class="st0" d="M2883.91,349.69v63.53c0,11.46-3.63,20.59-10.88,27.56c-7.25,7.11-16.68,10.59-28.43,10.59
		s-21.17-3.48-28.43-10.59c-7.25-6.96-10.88-16.1-10.88-27.56v-63.53h15.81v62.8c0,14.65,9.43,24.37,23.5,24.37
		s23.5-9.72,23.5-24.37v-62.8H2883.91z"/>
	<path class="st0" d="M2981.37,450.06h-16.53c-0.72-3.34-1.16-10.15-1.3-20.45c-0.44-11.17-6.24-18.56-15.66-18.56h-29.01v39.01
		h-15.81V349.69h45.11c19.58,0,32.05,11.02,32.05,28.43c0,12.33-6.38,21.76-17.4,25.82c10.59,3.19,16.1,11.17,16.53,23.79
		C2979.77,439.47,2980.35,447.01,2981.37,450.06z M2946.56,398.28c10.59,0,17.4-6.82,17.4-17.4s-6.53-17.11-17.4-17.11h-27.7v34.52
		H2946.56z"/>
	<path class="st0" d="M3096.81,395.52c0,0.73,0.14,3.19,0.14,4.21c0,15.08-4.79,27.41-14.5,37.13c-9.72,9.72-22.19,14.5-37.42,14.5
		c-15.08,0-27.56-4.93-37.27-14.65c-9.86-9.72-14.79-22.05-14.79-36.98s4.93-27.12,14.79-36.84c9.72-9.72,22.19-14.5,37.27-14.5
		c12.62,0,23.64,3.62,32.92,10.73c9.28,7.11,15.08,16.39,17.4,27.85h-16.53c-4.21-15.08-16.97-24.8-33.65-24.8
		c-10.59,0-19.14,3.48-25.96,10.59s-10.15,16.1-10.15,26.98s3.34,19.87,10.15,26.98s15.37,10.73,25.96,10.73
		c9.14,0,16.82-2.61,23.21-7.98c6.38-5.37,10.15-12.18,11.46-20.59h-34.66v-13.34H3096.81z"/>
</g>
<path class="st0" d="M338.52,162.51"/>
<g>
	<path class="st0" d="M457.65,18.87c14.58,12.58,21.73,28.88,22.02,48.61h-47.18c-0.29-16.87-12.58-28.02-30.88-28.02
		c-16.3,0-27.74,8.01-27.74,20.59c0,18.87,27.74,20.3,55.76,26.88c19.45,4.86,36.32,9.72,47.47,25.45
		c5.43,8.01,8.29,17.73,8.29,29.45c0,19.45-7.72,34.89-23.16,46.04c-15.73,11.44-35.75,17.16-60.62,17.16
		c-24.31,0-43.75-6.29-58.91-18.59s-23.16-28.88-23.45-49.76h48.61c0.29,16.87,14.3,28.88,36.03,28.88
		c18.59,0,32.03-8.86,32.03-21.73c-0.29-18.3-27.74-19.45-55.76-26.59c-19.45-5.15-36.32-9.44-47.47-25.17
		c-5.43-7.72-8.29-17.44-8.29-28.88c0-19.16,7.15-34.6,21.73-46.04C360.71,5.72,379.58,0,402.75,0
		C424.76,0,443.07,6.29,457.65,18.87z"/>
	<path class="st0" d="M654.96,2.86v42.89h-55.19v156.42h-48.61V45.75h-55.19V2.86H654.96z"/>
	<path class="st0" d="M791.65,202.18l-10.29-31.17h-79.5l-10.29,31.17h-52.33L712.15,2.86h58.91l72.92,199.32H791.65z
		 M714.72,130.97h53.48L741.6,49.76L714.72,130.97z"/>
	<path class="st0" d="M1032.99,202.18h-50.62c-0.57-2.57-1.43-14.58-2.29-35.46c-0.86-19.73-9.44-32.31-23.16-32.31h-44.9v67.77
		h-48.61V2.86h96.94c20.88,0,37.75,5.43,50.33,16.01c12.58,10.58,18.87,24.88,18.87,42.9c0,23.16-11.44,41.46-31.74,50.9
		c19.45,6.86,29.74,22.88,31.17,47.76C1029.85,182.45,1030.99,196.46,1032.99,202.18z M954.93,95.23c15.16,0,24.88-9.72,24.88-24.88
		c0-15.16-9.72-24.59-24.88-24.59h-42.9v49.47H954.93z"/>
	<path class="st0" d="M1204.28,2.86v42.89h-55.19v156.42h-48.61V45.75h-55.19V2.86H1204.28z"/>
	<path class="st0" d="M1384.72,2.86V130.4c0,22.02-7.44,39.75-22.59,53.76c-15.16,14.01-34.32,20.88-58.05,20.88
		c-23.73,0-43.47-6.86-58.62-20.88c-15.16-14.01-22.88-31.74-22.88-53.76V2.86h48.61v124.97c0,19.45,13.44,32.6,32.6,32.6
		c19.16,0,32.6-13.15,32.6-32.6V2.86H1384.72z"/>
	<path class="st0" d="M1508.82,2.86c20.3,0,37.18,6.29,50.33,19.16c13.15,12.87,19.73,29.17,19.73,49.19
		c0,20.02-6.58,36.32-19.73,49.19c-13.15,12.87-30.03,19.16-50.33,19.16h-42.9v62.63h-48.61V2.86H1508.82z M1503.38,98.37
		c15.16,0,26.02-11.44,26.02-26.59s-10.29-26.02-26.02-26.02h-37.46v52.62H1503.38z"/>
	<path class="st0" d="M135.38,272.59H25.28v66.63h100.66v19.73H25.28v69.49h110.1v20.59H2.12V251.72h133.26V272.59z"/>
	<path class="st0" d="M287.79,251.72h23.16v197.32h-30.03l-101.8-167.29v167.29h-23.16V251.72h30.03l101.8,167.29V251.72z"/>
	<path class="st0" d="M533.14,343.8c0.29,0.86,0.29,3.15,0.29,6.29c0,29.46-9.44,53.76-28.31,72.92
		c-18.87,19.16-43.18,28.6-73.21,28.6c-29.45,0-54.05-9.72-73.21-28.88c-19.16-19.16-28.88-43.18-28.88-72.64
		c0-29.45,9.72-53.47,28.88-72.35c19.16-18.87,43.75-28.31,73.21-28.31c24.88,0,46.61,7.15,64.63,21.16
		c18.02,14.3,29.45,32.6,34.03,55.19h-24.31c-8.86-34.03-37.46-56.05-74.35-56.05c-22.59,0-41.47,7.43-56.05,22.59
		c-14.87,15.16-22.31,34.6-22.31,57.76c0,23.45,7.44,42.9,22.31,58.05c14.58,15.16,33.46,22.88,56.05,22.88
		c20.59,0,38.03-6.29,52.33-19.16c14.3-12.58,22.31-28.88,24.02-48.61h-76.35V343.8H533.14z"/>
	<path class="st0" d="M575.17,251.72v197.32h-23.16V251.72H575.17z"/>
	<path class="st0" d="M737.03,251.72h23.16v197.32h-30.03l-101.8-167.29v167.29H605.2V251.72h30.03l101.8,167.29V251.72z"/>
	<path class="st0" d="M923.18,272.59h-110.1v66.63h100.66v19.73H813.09v69.49h110.1v20.59H789.92V251.72h133.26V272.59z"/>
	<path class="st0" d="M1077.03,272.59h-110.1v66.63h100.66v19.73H966.93v69.49h110.1v20.59H943.77V251.72h133.26V272.59z"/>
	<path class="st0" d="M1245.17,449.03h-24.31c-1.43-6.29-2.57-20.59-2.86-42.61c-0.29-23.74-13.44-38.32-34.03-38.32h-63.2v80.93
		h-23.16V251.72h85.5c36.89,0,60.34,21.45,60.34,54.91c0,24.88-13.44,43.18-35.46,50.9c20.59,5.43,32.89,21.73,33.17,46.61
		C1241.45,427.01,1242.88,441.88,1245.17,449.03z M1180.83,348.94c23.74,0,38.61-14.87,38.61-38.61c0-23.16-14.87-37.75-38.61-37.75
		h-60.05v76.35H1180.83z"/>
	<path class="st0" d="M1297.78,435.31c0,9.15-6.86,15.73-16.3,15.73c-9.44,0-16.59-6.58-16.59-15.73c0-9.44,6.58-15.73,16.59-15.73
		C1290.92,419.58,1297.78,425.87,1297.78,435.31z"/>
	<path class="st0" d="M1349.54,251.72v197.32h-23.16V251.72H1349.54z"/>
	<path class="st0" d="M1470.78,249.43c29.45,0,54.05,9.44,73.21,28.31c19.16,18.87,28.88,42.89,28.88,72.35
		c0,29.46-9.72,53.48-28.88,72.64c-19.16,19.16-43.75,28.88-73.21,28.88c-29.45,0-54.05-9.72-73.21-28.88
		c-19.16-19.16-28.88-43.18-28.88-72.64c0-29.45,9.72-53.47,28.88-72.35C1416.73,258.87,1441.33,249.43,1470.78,249.43z
		 M1470.78,270.59c-22.59,0-41.47,7.44-56.05,22.31c-14.87,15.16-22.31,34.03-22.31,57.19c0,23.16,7.44,42.32,22.31,57.48
		c14.58,15.16,33.46,22.59,56.05,22.59c22.59,0,41.18-7.43,56.05-22.59c14.58-15.16,22.02-34.32,22.02-57.48
		c0-23.16-7.44-42.04-22.02-57.19C1512.25,278.03,1493.37,270.59,1470.78,270.59z"/>
</g>
<g>
	<path class="st0" d="M177.31,94.77l23.74-14.61L189.14,49.3l-27.42,5.14c-3.34-4.38-7.19-8.41-11.48-12.03l6.47-27.16L126.45,1.86
		L110.69,24.9c-5.57-0.74-11.14-0.88-16.63-0.42L79.44,0.72L48.58,12.64l5.14,27.4c-4.39,3.35-8.44,7.2-12.07,11.5l-27.12-6.46
		L1.14,75.32l22.98,15.72c-0.75,5.59-0.89,11.2-0.42,16.72L0,122.34l11.92,30.86l27.32-5.12c3.36,4.41,7.24,8.48,11.56,12.13
		l-6.44,27.04l30.24,13.39l15.7-22.94c5.61,0.75,11.22,0.88,16.75,0.41l14.57,23.67l30.86-11.92l-5.13-27.34
		c4.4-3.36,8.46-7.23,12.09-11.55l27.08,6.45l13.39-30.24l-23.01-15.74C177.65,105.86,177.78,100.27,177.31,94.77z M99.48,145.55
		c-24.46-0.58-43.83-20.88-43.25-45.34s20.88-43.83,45.34-43.25c24.46,0.58,43.83,20.88,43.25,45.34
		C144.24,126.76,123.94,146.12,99.48,145.55z"/>
	<g>
		<path class="st0" d="M87.24,79.32c4.16,0,7.41,1.48,9.76,4.45c2.79,3.52,4.19,9.35,4.19,17.49c0,8.13-1.41,13.96-4.22,17.52
			c-2.32,2.93-5.57,4.39-9.73,4.39c-4.18,0-7.55-1.61-10.11-4.82c-2.56-3.21-3.84-8.94-3.84-17.18c0-8.09,1.41-13.91,4.22-17.46
			C79.84,80.79,83.08,79.32,87.24,79.32z M87.24,86.15c-1,0-1.89,0.32-2.67,0.95c-0.78,0.63-1.39,1.77-1.82,3.41
			c-0.57,2.13-0.85,5.71-0.85,10.75s0.25,8.5,0.76,10.39c0.51,1.89,1.15,3.14,1.92,3.76c0.77,0.63,1.66,0.94,2.65,0.94
			s1.88-0.32,2.67-0.95c0.78-0.63,1.39-1.77,1.82-3.41c0.57-2.11,0.85-5.68,0.85-10.72s-0.25-8.5-0.76-10.39
			c-0.51-1.88-1.15-3.14-1.92-3.78C89.12,86.46,88.24,86.15,87.24,86.15z"/>
		<path class="st0" d="M127.76,122.45h-8.23V91.42c-3.01,2.81-6.55,4.89-10.63,6.24v-7.47c2.15-0.7,4.48-2.04,7-4
			s4.25-4.25,5.19-6.87h6.68V122.45z"/>
	</g>
	<g>
		<path class="st0" d="M226.69,187.46c17.31-1.87,29.88-17.47,28.01-34.79c-1.87-17.31-17.47-29.88-34.79-28.01
			c-1.17,0.13-2.31,0.32-3.44,0.56l4.34,5.49c13.89-1.37,26.31,8.71,27.81,22.61c1.51,13.98-8.6,26.54-22.59,28.05
			c-9.74,1.05-18.79-3.54-23.9-11.16l-3.87,5.07C204.76,183.72,215.36,188.69,226.69,187.46z"/>
		<path class="st0" d="M274.01,150.59c-0.42-3.91-1.28-7.66-2.51-11.22l12.17-12.56l-13.95-19.08l-15.9,7.51
			c-6.09-4.54-13.19-7.74-20.84-9.21l-5.16-16.85l-23.5,2.54l-1.05,16.8l4.35,5.51l1.47-0.63l1.01-16.15l13.35-1.44l4.76,15.54
			l3.61,0.69c6.59,1.26,12.93,4.07,18.34,8.11l2.95,2.2l14.66-6.93l7.93,10.84l-11.2,11.56l1.23,3.55c1.1,3.18,1.84,6.51,2.21,9.88
			c0.36,3.37,0.35,6.78-0.05,10.12l-0.43,3.65l13.31,9.22l-5.43,12.29l-15.65-3.93l-2.46,2.84c-4.42,5.1-10.02,9.19-16.18,11.83
			l-3.38,1.45l-1.33,16.19l-13.35,1.44l-4.43-15.56l-3.69-0.71c-6.57-1.27-12.9-4.08-18.3-8.11l-3.01-2.25l-14.55,7.23l-7.93-10.84
			l7.83-8.4l-5.47-3.1l-10.28,11.03l13.95,19.08l15.8-7.85c6.08,4.54,13.17,7.74,20.8,9.22l4.82,16.9l23.5-2.54l1.44-17.56
			c7.16-3.07,13.42-7.71,18.4-13.45l17.01,4.27l9.55-21.62l-14.44-10C274.4,158.34,274.43,154.49,274.01,150.59z"/>
	</g>
</g>
<g>
</g>
<g>
</g>
<g>
</g>
<g>
</g>
<g>
</g>
<g>
</g>
<g>
</g>
<g>
</g>
<g>
</g>
<g>
</g>
<g>
</g>
<g>
</g>
<g>
</g>
<g>
</g>
<g>
</g>
</svg>
