<?xml version="1.0" encoding="utf-8"?>
<!-- Generator: Adobe Illustrator 25.1.0, SVG Export Plug-In . SVG Version: 6.00 Build 0)  -->
<svg version="1.1" id="Layer_1" xmlns="http://www.w3.org/2000/svg" xmlns:xlink="http://www.w3.org/1999/xlink" x="0px" y="0px"
	 viewBox="0 0 3423.63 648.33" style="enable-background:new 0 0 3423.63 648.33;" xml:space="preserve">
<style type="text/css">
	.st0{fill:#2DC6D6;}
</style>
<g>
	<rect x="2171.59" y="98.43" class="st0" width="17.28" height="109.7"/>
	<path class="st0" d="M2251.17,128.7c-11.1,0-19.34,4.44-24.57,13.16v-11.73h-16.17v77.99h16.17v-45.65
		c0-12.52,7.77-20.77,19.82-20.77c11.57,0,19.34,8.24,19.34,20.77v45.65h16.33v-47.87c0-9.35-2.85-16.96-8.72-22.83
		C2267.5,131.56,2260.21,128.7,2251.17,128.7z"/>
	<path class="st0" d="M2355.16,169.76c-1.9-1.43-4.6-2.85-7.93-4.12c-7.45-2.69-8.08-2.54-15.54-3.96
		c-4.91-0.79-5.87-1.11-9.35-2.38c-4.76-1.59-6.18-3.8-6.82-8.72c0-5.87,6.02-9.99,14.27-9.99c9.04,0,15.06,4.76,15.54,11.73h15.22
		c0-6.98-2.85-12.68-8.56-17.12c-5.71-4.28-13-6.5-21.88-6.5c-18.23,0-30.6,9.35-30.6,23.46c0,6.98,3.33,12.68,7.13,15.69
		c1.9,1.59,4.44,3.01,7.61,4.12c6.18,2.38,9.35,3.01,15.54,3.8c5.87,1.11,7.61,1.27,11.41,2.85c3.8,1.58,5.23,4.28,5.23,8.08
		c0,6.34-6.5,10.78-15.54,10.78c-9.67,0-16.8-4.91-16.96-12.36h-15.85c0.16,7.13,3.17,13,9.19,17.6c6.02,4.6,13.79,6.82,23.14,6.82
		c9.35,0,17.12-2.22,23.14-6.66c5.87-4.28,8.88-9.99,8.88-17.12C2362.46,178.64,2358.81,172.93,2355.16,169.76z"/>
	<polygon class="st0" points="2402.56,110 2386.24,110 2386.24,130.13 2371.81,130.13 2371.81,143.76 2386.24,143.76 
		2386.24,208.12 2402.56,208.12 2402.56,143.76 2420.16,143.76 2420.16,130.13 2402.56,130.13 	"/>
	<path class="st0" d="M2440.77,99.54c-6.18,0-10.3,3.8-10.3,9.51c0,5.55,4.12,9.51,10.3,9.51c5.87,0,10.3-3.96,10.3-9.51
		C2451.07,103.34,2446.95,99.54,2440.77,99.54z"/>
	<rect x="2432.68" y="130.13" class="st0" width="16.17" height="77.99"/>
	<polygon class="st0" points="2492.45,110 2476.12,110 2476.12,130.13 2461.69,130.13 2461.69,143.76 2476.12,143.76 
		2476.12,208.12 2492.45,208.12 2492.45,143.76 2510.04,143.76 2510.04,130.13 2492.45,130.13 	"/>
	<path class="st0" d="M2576.78,175.94c0,12.21-7.61,20.13-19.5,20.13c-11.57,0-19.34-7.93-19.34-20.13v-45.81h-16.17v45.81
		c0,9.99,3.33,18.07,9.99,24.25c6.5,6.18,15.06,9.35,25.68,9.35s19.18-3.17,25.68-9.35c6.5-6.18,9.83-14.27,9.83-24.25v-45.81
		h-16.17V175.94z"/>
	<polygon class="st0" points="2635.91,110 2619.58,110 2619.58,130.13 2605.16,130.13 2605.16,143.76 2619.58,143.76 
		2619.58,208.12 2635.91,208.12 2635.91,143.76 2653.51,143.76 2653.51,130.13 2635.91,130.13 	"/>
	<path class="st0" d="M2701.54,128.7c-12.05,0-22.03,3.8-29.8,11.41c-7.93,7.61-11.89,17.28-11.89,29.01
		c0,11.73,3.96,21.4,11.89,29.01c7.77,7.61,17.75,11.41,29.8,11.41c9.67,0,18.23-2.85,25.68-8.4c7.45-5.55,12.36-12.52,14.58-21.24
		h-16.49c-3.01,9.51-12.68,16.33-23.62,16.33c-13.32,0-23.78-8.88-25.84-22.03h66.74c0.32-1.59,0.48-3.17,0.48-4.91
		c-0.16-11.89-3.96-21.56-11.73-29.17C2723.58,132.51,2713.59,128.7,2701.54,128.7z M2676.34,161.68
		c1.43-5.87,4.44-10.62,9.04-14.27c4.6-3.65,9.99-5.39,16.33-5.39s11.89,1.74,16.64,5.39s7.77,8.4,9.19,14.27H2676.34z"/>
	<path class="st0" d="M2838.99,128.7c-12.05,0-22.03,3.8-29.8,11.41c-7.93,7.61-11.89,17.28-11.89,29.01
		c0,11.73,3.96,21.4,11.89,29.01c7.77,7.61,17.75,11.41,29.8,11.41c12.05,0,22.04-3.8,29.8-11.41c7.77-7.61,11.73-17.28,11.73-29.01
		c0-11.73-3.96-21.4-11.73-29.01C2861.02,132.51,2851.03,128.7,2838.99,128.7z M2856.9,187.99c-4.76,4.91-10.78,7.45-18.07,7.45
		c-7.13,0-13.16-2.54-17.75-7.45c-4.75-4.91-7.13-11.1-7.13-18.86c0-7.61,2.38-13.95,7.13-18.86c4.6-4.91,10.62-7.45,17.75-7.45
		c7.29,0,13.32,2.54,18.07,7.45c4.6,4.91,6.97,11.26,6.97,18.86C2863.87,176.9,2861.5,183.08,2856.9,187.99z"/>
	<path class="st0" d="M2925.54,110.79c2.06,0,4.12,0.32,6.02,1.11V97.63c-1.74-0.48-3.8-0.63-6.18-0.63
		c-14.74,0-25.36,9.35-25.36,22.67v10.46h-11.25v13.63h11.25v64.36h16.17v-64.36h15.38v-13.63h-15.38v-10.46
		C2916.19,114.44,2919.99,110.79,2925.54,110.79z"/>
</g>
<g>
	<polygon class="st0" points="2171.59,361.73 2247.05,361.73 2247.05,346.36 2188.87,346.36 2188.87,313.7 2242.29,313.7 
		2242.29,298.96 2188.87,298.96 2188.87,267.41 2247.05,267.41 2247.05,252.04 2171.59,252.04 	"/>
	<path class="st0" d="M2305.07,282.31c-11.1,0-19.34,4.44-24.57,13.16v-11.73h-16.17v77.99h16.17v-45.65
		c0-12.52,7.77-20.77,19.82-20.77c11.57,0,19.34,8.24,19.34,20.77v45.65h16.33v-47.87c0-9.35-2.85-16.96-8.72-22.83
		C2321.4,285.17,2314.11,282.31,2305.07,282.31z"/>
	<polygon class="st0" points="2378.79,263.61 2362.46,263.61 2362.46,283.74 2348.03,283.74 2348.03,297.37 2362.46,297.37 
		2362.46,361.73 2378.79,361.73 2378.79,297.37 2396.38,297.37 2396.38,283.74 2378.79,283.74 	"/>
	<path class="st0" d="M2425.07,301.97v-18.23h-16.17v77.99h16.17v-38.52c0-15.85,11.1-25.52,29.33-25.52v-16.01
		C2440.61,281.68,2430.31,289.13,2425.07,301.97z"/>
	<path class="st0" d="M2501.48,282.31c-12.05,0-22.03,3.8-29.8,11.41c-7.93,7.61-11.89,17.28-11.89,29.01
		c0,11.73,3.96,21.4,11.89,29.01c7.77,7.61,17.75,11.41,29.8,11.41c9.67,0,18.23-2.85,25.68-8.4c7.45-5.55,12.36-12.52,14.58-21.24
		h-16.49c-3.01,9.51-12.68,16.33-23.62,16.33c-13.32,0-23.78-8.88-25.84-22.03h66.74c0.32-1.59,0.48-3.17,0.48-4.91
		c-0.16-11.89-3.96-21.56-11.73-29.17C2523.52,286.12,2513.53,282.31,2501.48,282.31z M2476.28,315.29
		c1.43-5.87,4.44-10.62,9.04-14.27s9.99-5.39,16.33-5.39s11.89,1.74,16.64,5.39s7.77,8.4,9.19,14.27H2476.28z"/>
	<path class="st0" d="M2602.94,282.31c-11.73,0-21.24,4.28-28.53,12.68v-11.26h-16.17v109.7h16.17v-42.96
		c7.29,8.4,16.8,12.68,28.53,12.68c10.94,0,20.13-3.8,27.27-11.41c7.13-7.61,10.78-17.28,10.78-29.01c0-11.73-3.65-21.4-10.78-29.01
		C2623.07,286.12,2613.88,282.31,2602.94,282.31z M2617.37,341.6c-4.76,4.91-10.78,7.45-17.91,7.45c-7.29,0-13.32-2.54-17.91-7.45
		c-4.76-4.91-7.13-11.1-7.13-18.86c0-7.61,2.38-13.95,7.13-18.86c4.6-4.91,10.62-7.45,17.91-7.45c7.13,0,13.16,2.54,17.91,7.45
		c4.6,4.91,6.98,11.26,6.98,18.86C2624.34,330.5,2621.96,336.69,2617.37,341.6z"/>
	<path class="st0" d="M2672.53,301.97v-18.23h-16.17v77.99h16.17v-38.52c0-15.85,11.1-25.52,29.33-25.52v-16.01
		C2688.07,281.68,2677.77,289.13,2672.53,301.97z"/>
	<path class="st0" d="M2748.94,282.31c-12.05,0-22.03,3.8-29.8,11.41c-7.93,7.61-11.89,17.28-11.89,29.01
		c0,11.73,3.96,21.4,11.89,29.01c7.77,7.61,17.75,11.41,29.8,11.41c9.67,0,18.23-2.85,25.68-8.4c7.45-5.55,12.36-12.52,14.58-21.24
		h-16.49c-3.01,9.51-12.68,16.33-23.62,16.33c-13.32,0-23.78-8.88-25.84-22.03H2790c0.32-1.59,0.48-3.17,0.48-4.91
		c-0.16-11.89-3.96-21.56-11.73-29.17C2770.98,286.12,2760.99,282.31,2748.94,282.31z M2723.74,315.29
		c1.43-5.87,4.44-10.62,9.04-14.27s9.99-5.39,16.33-5.39s11.89,1.74,16.64,5.39s7.77,8.4,9.19,14.27H2723.74z"/>
	<path class="st0" d="M2846.44,282.31c-11.1,0-19.34,4.44-24.57,13.16v-11.73h-16.17v77.99h16.17v-45.65
		c0-12.52,7.77-20.77,19.82-20.77c11.57,0,19.34,8.24,19.34,20.77v45.65h16.33v-47.87c0-9.35-2.85-16.96-8.72-22.83
		C2862.77,285.17,2855.47,282.31,2846.44,282.31z"/>
	<path class="st0" d="M2933.47,282.31c-12.05,0-22.03,3.8-29.8,11.41c-7.93,7.61-11.89,17.28-11.89,29.01
		c0,11.73,3.96,21.4,11.89,29.01c7.77,7.61,17.75,11.41,29.8,11.41c9.67,0,18.23-2.85,25.68-8.4c7.45-5.55,12.36-12.52,14.58-21.24
		h-16.49c-3.01,9.51-12.68,16.33-23.62,16.33c-13.32,0-23.78-8.88-25.84-22.03h66.74c0.32-1.59,0.48-3.17,0.48-4.91
		c-0.16-11.89-3.96-21.56-11.73-29.17C2955.5,286.12,2945.52,282.31,2933.47,282.31z M2908.26,315.29
		c1.43-5.87,4.44-10.62,9.04-14.27s9.99-5.39,16.33-5.39s11.89,1.74,16.64,5.39s7.77,8.4,9.19,14.27H2908.26z"/>
	<path class="st0" d="M3044.44,329.55c0,12.21-7.61,20.13-19.5,20.13c-11.57,0-19.34-7.93-19.34-20.13v-45.81h-16.17v45.81
		c0,9.99,3.33,18.07,9.99,24.25c6.5,6.18,15.06,9.35,25.68,9.35s19.18-3.17,25.68-9.35c6.5-6.18,9.83-14.27,9.83-24.25v-45.81
		h-16.17V329.55z"/>
	<path class="st0" d="M3095.96,301.97v-18.23h-16.17v77.99h16.17v-38.52c0-15.85,11.1-25.52,29.33-25.52v-16.01
		C3111.49,281.68,3101.19,289.13,3095.96,301.97z"/>
	<path class="st0" d="M3190.6,323.37c-1.9-1.43-4.6-2.85-7.93-4.12c-7.45-2.69-8.08-2.54-15.54-3.96c-4.91-0.79-5.87-1.11-9.35-2.38
		c-4.76-1.59-6.18-3.8-6.82-8.72c0-5.87,6.02-9.99,14.27-9.99c9.04,0,15.06,4.76,15.54,11.73h15.22c0-6.98-2.85-12.68-8.56-17.12
		c-5.71-4.28-13-6.5-21.88-6.5c-18.23,0-30.6,9.35-30.6,23.46c0,6.98,3.33,12.68,7.13,15.69c1.9,1.58,4.44,3.01,7.61,4.12
		c6.18,2.38,9.35,3.01,15.54,3.8c5.87,1.11,7.61,1.27,11.41,2.85s5.23,4.28,5.23,8.08c0,6.34-6.5,10.78-15.54,10.78
		c-9.67,0-16.8-4.91-16.96-12.37h-15.85c0.16,7.13,3.17,13,9.19,17.6c6.02,4.6,13.79,6.82,23.14,6.82c9.35,0,17.12-2.22,23.14-6.66
		c5.87-4.28,8.88-9.99,8.88-17.12C3197.89,332.25,3194.24,326.54,3190.6,323.37z"/>
	<path class="st0" d="M3254.96,282.31c-11.1,0-19.34,4.44-24.57,13.16v-43.44h-16.17v109.7h16.17v-45.65
		c0-12.52,7.77-20.77,19.82-20.77c11.57,0,19.34,8.24,19.34,20.77v45.65h16.33v-47.87c0-9.35-2.85-16.96-8.72-22.83
		C3271.29,285.17,3263.99,282.31,3254.96,282.31z"/>
	<rect x="3304.9" y="283.74" class="st0" width="16.17" height="77.99"/>
	<path class="st0" d="M3312.98,253.15c-6.18,0-10.3,3.8-10.3,9.51c0,5.55,4.12,9.51,10.3,9.51c5.87,0,10.3-3.96,10.3-9.51
		C3323.28,256.95,3319.16,253.15,3312.98,253.15z"/>
	<path class="st0" d="M3412.85,293.73c-7.13-7.61-16.33-11.41-27.27-11.41c-11.73,0-21.24,4.28-28.53,12.68v-11.26h-16.17v109.7
		h16.17v-42.96c7.29,8.4,16.8,12.68,28.53,12.68c10.94,0,20.13-3.8,27.27-11.41c7.13-7.61,10.78-17.28,10.78-29.01
		C3423.63,311.01,3419.98,301.34,3412.85,293.73z M3400.01,341.6c-4.76,4.91-10.78,7.45-17.91,7.45c-7.29,0-13.32-2.54-17.91-7.45
		c-4.76-4.91-7.13-11.1-7.13-18.86c0-7.61,2.38-13.95,7.13-18.86c4.6-4.91,10.62-7.45,17.91-7.45c7.13,0,13.16,2.54,17.91,7.45
		c4.6,4.91,6.98,11.26,6.98,18.86C3406.98,330.5,3404.61,336.69,3400.01,341.6z"/>
</g>
<g>
	<polygon class="st0" points="2162.4,452.73 2196,452.73 2196,547.05 2213.28,547.05 2213.28,452.73 2246.89,452.73 2246.89,437.35 
		2162.4,437.35 	"/>
	<path class="st0" d="M2327.26,505.99c0,16.01-10.3,26.63-25.68,26.63s-25.68-10.62-25.68-26.63v-68.64h-17.28v69.43
		c0,12.52,3.96,22.51,11.89,30.12c7.93,7.77,18.23,11.57,31.07,11.57c12.84,0,23.14-3.8,31.07-11.57
		c7.93-7.61,11.89-17.6,11.89-30.12v-69.43h-17.28V505.99z"/>
	<polygon class="st0" points="2475.96,484.91 2426.34,484.91 2426.34,437.35 2409.06,437.35 2409.06,547.05 2426.34,547.05 
		2426.34,500.28 2475.96,500.28 2475.96,547.05 2493.24,547.05 2493.24,437.35 2475.96,437.35 	"/>
	<path class="st0" d="M2548.57,437.35l-42.48,109.7h18.55l8.72-23.62h51.36l8.72,23.62h18.71l-42.64-109.7H2548.57z M2538.58,509.16
		l20.45-55.01l20.45,55.01H2538.58z"/>
	<polygon class="st0" points="2683.79,524.7 2650.34,437.35 2624.82,437.35 2624.82,547.05 2642.1,547.05 2642.1,458.43 
		2675.86,547.05 2691.71,547.05 2725.48,458.43 2725.48,547.05 2742.76,547.05 2742.76,437.35 2717.24,437.35 	"/>
	<path class="st0" d="M2828.52,490.46c10.62-3.96,17.28-13.47,17.28-25.36c0-8.24-2.85-14.9-8.4-20.13
		c-5.55-5.07-12.84-7.61-21.56-7.61h-49.78v109.7h54.69c8.72,0,15.85-2.7,21.4-8.08c5.55-5.23,8.24-12.21,8.24-20.77
		C2850.4,504.09,2841.84,493.47,2828.52,490.46z M2783.34,452.41h29.17c9.51,0,16.33,6.66,16.33,16.01
		c0,9.51-6.82,16.49-16.33,16.49h-29.17V452.41z M2816.48,531.99h-33.13V498.7h33.13c9.35,0,16.33,6.97,16.33,16.64
		S2825.83,531.99,2816.48,531.99z"/>
	<path class="st0" d="M2933.94,505.99c0,16.01-10.3,26.63-25.68,26.63s-25.68-10.62-25.68-26.63v-68.64h-17.28v69.43
		c0,12.52,3.96,22.51,11.89,30.12c7.93,7.77,18.23,11.57,31.07,11.57c12.84,0,23.14-3.8,31.07-11.57
		c7.93-7.61,11.89-17.6,11.89-30.12v-69.43h-17.28V505.99z"/>
	<path class="st0" d="M3037.46,496.64c12.05-4.44,19.02-14.74,19.02-28.22c0-19.02-13.63-31.07-35.03-31.07h-49.3v109.7h17.28
		v-42.64h31.7c10.3,0,16.65,8.08,17.12,20.29c0.16,11.25,0.63,18.71,1.43,22.35h18.07c-1.11-3.33-1.74-11.57-2.22-24.41
		C3055.06,508.84,3049.04,500.13,3037.46,496.64z M3019.71,490.46h-30.28v-37.73h30.28c11.89,0,19.02,7.13,19.02,18.71
		C3038.73,483,3031.28,490.46,3019.71,490.46z"/>
	<path class="st0" d="M3183.94,487.44h-56.43v14.58h37.89c-1.43,9.19-5.55,16.64-12.52,22.51c-6.97,5.87-15.38,8.72-25.36,8.72
		c-11.57,0-20.93-3.96-28.38-11.73c-7.45-7.77-11.1-17.6-11.1-29.49c0-11.89,3.65-21.72,11.1-29.49
		c7.45-7.77,16.8-11.57,28.38-11.57c18.23,0,32.18,10.62,36.78,27.11h18.07c-2.54-12.52-8.88-22.67-19.02-30.44
		s-22.19-11.73-35.99-11.73c-16.49,0-30.12,5.23-40.74,15.85c-10.78,10.62-16.17,23.94-16.17,40.26s5.39,29.8,16.17,40.42
		c10.62,10.62,24.25,16.01,40.74,16.01c16.65,0,30.28-5.23,40.9-15.85s15.85-24.1,15.85-40.58
		C3184.1,490.93,3183.94,488.24,3183.94,487.44z"/>
</g>
<g>
	<polygon class="st0" points="2007.04,98.9 1917.04,98.9 1827.04,98.9 1737.04,98.9 1647.04,98.9 1647.04,188.9 1737.04,188.9 
		1827.04,188.9 1827.04,278.9 1827.04,368.9 1917.04,368.9 1917.04,278.9 1917.04,188.9 2007.04,188.9 2097.04,188.9 2097.04,98.9 	
		"/>
	<path class="st0" d="M2007.04,278.9v36v9c0,74.56-60.44,135-135,135s-135-60.44-135-135v-9v-36h-85.49h-4.51v36h0.19
		c-0.12,2.99-0.19,5.98-0.19,9c0,124.26,100.74,225,225,225s225-100.74,225-225c0-3.02-0.08-6.01-0.19-9h0.19v-36h-4.51H2007.04z"/>
</g>
<path class="st0" d="M338.52,259.86"/>
<g>
	<path class="st0" d="M457.65,116.23c14.58,12.58,21.73,28.88,22.02,48.61h-47.18c-0.29-16.87-12.58-28.02-30.88-28.02
		c-16.3,0-27.74,8.01-27.74,20.59c0,18.87,27.74,20.3,55.76,26.88c19.45,4.86,36.32,9.72,47.47,25.45
		c5.43,8.01,8.29,17.73,8.29,29.45c0,19.45-7.72,34.89-23.16,46.04c-15.73,11.44-35.75,17.16-60.62,17.16
		c-24.31,0-43.75-6.29-58.91-18.59s-23.16-28.88-23.45-49.76h48.61c0.29,16.87,14.3,28.88,36.03,28.88
		c18.59,0,32.03-8.86,32.03-21.73c-0.29-18.3-27.74-19.45-55.76-26.59c-19.45-5.15-36.32-9.44-47.47-25.17
		c-5.43-7.72-8.29-17.44-8.29-28.88c0-19.16,7.15-34.6,21.73-46.04c14.58-11.44,33.46-17.16,56.62-17.16
		C424.76,97.36,443.07,103.65,457.65,116.23z"/>
	<path class="st0" d="M654.96,100.22v42.89h-55.19v156.42h-48.61V143.11h-55.19v-42.89H654.96z"/>
	<path class="st0" d="M791.65,299.53l-10.29-31.17h-79.5l-10.29,31.17h-52.33l72.92-199.32h58.91l72.92,199.32H791.65z
		 M714.72,228.33h53.48l-26.59-81.21L714.72,228.33z"/>
	<path class="st0" d="M1032.99,299.53h-50.62c-0.57-2.57-1.43-14.58-2.29-35.46c-0.86-19.73-9.44-32.31-23.16-32.31h-44.9v67.77
		h-48.61V100.22h96.94c20.88,0,37.75,5.43,50.33,16.01c12.58,10.58,18.87,24.88,18.87,42.9c0,23.16-11.44,41.46-31.74,50.9
		c19.45,6.86,29.74,22.88,31.17,47.76C1029.85,279.8,1030.99,293.81,1032.99,299.53z M954.93,192.58c15.16,0,24.88-9.72,24.88-24.88
		c0-15.16-9.72-24.59-24.88-24.59h-42.9v49.47H954.93z"/>
	<path class="st0" d="M1204.28,100.22v42.89h-55.19v156.42h-48.61V143.11h-55.19v-42.89H1204.28z"/>
	<path class="st0" d="M1384.72,100.22v127.54c0,22.02-7.44,39.75-22.59,53.76c-15.16,14.01-34.32,20.88-58.05,20.88
		c-23.73,0-43.47-6.86-58.62-20.88c-15.16-14.01-22.88-31.74-22.88-53.76V100.22h48.61v124.97c0,19.45,13.44,32.6,32.6,32.6
		c19.16,0,32.6-13.15,32.6-32.6V100.22H1384.72z"/>
	<path class="st0" d="M1508.82,100.22c20.3,0,37.18,6.29,50.33,19.16c13.15,12.87,19.73,29.17,19.73,49.19
		c0,20.02-6.58,36.32-19.73,49.19c-13.15,12.87-30.03,19.16-50.33,19.16h-42.9v62.63h-48.61V100.22H1508.82z M1503.38,195.73
		c15.16,0,26.02-11.44,26.02-26.59s-10.29-26.02-26.02-26.02h-37.46v52.62H1503.38z"/>
	<path class="st0" d="M135.38,369.95H25.28v66.63h100.66v19.73H25.28v69.49h110.1v20.59H2.12V349.07h133.26V369.95z"/>
	<path class="st0" d="M287.79,349.07h23.16v197.32h-30.03L179.12,379.1v167.29h-23.16V349.07h30.03l101.8,167.29V349.07z"/>
	<path class="st0" d="M533.14,441.15c0.29,0.86,0.29,3.15,0.29,6.29c0,29.46-9.44,53.76-28.31,72.92
		c-18.87,19.16-43.18,28.6-73.21,28.6c-29.45,0-54.05-9.72-73.21-28.88c-19.16-19.16-28.88-43.18-28.88-72.64
		c0-29.45,9.72-53.47,28.88-72.35c19.16-18.87,43.75-28.31,73.21-28.31c24.88,0,46.61,7.15,64.63,21.16
		c18.02,14.3,29.45,32.6,34.03,55.19h-24.31c-8.86-34.03-37.46-56.05-74.35-56.05c-22.59,0-41.47,7.43-56.05,22.59
		c-14.87,15.16-22.31,34.6-22.31,57.76c0,23.45,7.44,42.9,22.31,58.05c14.58,15.16,33.46,22.88,56.05,22.88
		c20.59,0,38.03-6.29,52.33-19.16c14.3-12.58,22.31-28.88,24.02-48.61h-76.35v-19.45H533.14z"/>
	<path class="st0" d="M575.17,349.07v197.32h-23.16V349.07H575.17z"/>
	<path class="st0" d="M737.03,349.07h23.16v197.32h-30.03L628.36,379.1v167.29H605.2V349.07h30.03l101.8,167.29V349.07z"/>
	<path class="st0" d="M923.18,369.95h-110.1v66.63h100.66v19.73H813.09v69.49h110.1v20.59H789.92V349.07h133.26V369.95z"/>
	<path class="st0" d="M1077.03,369.95h-110.1v66.63h100.66v19.73H966.93v69.49h110.1v20.59H943.77V349.07h133.26V369.95z"/>
	<path class="st0" d="M1245.17,546.39h-24.31c-1.43-6.29-2.57-20.59-2.86-42.61c-0.29-23.74-13.44-38.32-34.03-38.32h-63.2v80.93
		h-23.16V349.07h85.5c36.89,0,60.34,21.45,60.34,54.91c0,24.88-13.44,43.18-35.46,50.9c20.59,5.43,32.89,21.73,33.17,46.61
		C1241.45,524.37,1242.88,539.24,1245.17,546.39z M1180.83,446.3c23.74,0,38.61-14.87,38.61-38.61c0-23.16-14.87-37.75-38.61-37.75
		h-60.05v76.35H1180.83z"/>
	<path class="st0" d="M1297.78,532.66c0,9.15-6.86,15.73-16.3,15.73c-9.44,0-16.59-6.58-16.59-15.73c0-9.44,6.58-15.73,16.59-15.73
		C1290.92,516.94,1297.78,523.23,1297.78,532.66z"/>
	<path class="st0" d="M1349.54,349.07v197.32h-23.16V349.07H1349.54z"/>
	<path class="st0" d="M1470.78,346.79c29.45,0,54.05,9.44,73.21,28.31c19.16,18.87,28.88,42.89,28.88,72.35
		c0,29.46-9.72,53.48-28.88,72.64c-19.16,19.16-43.75,28.88-73.21,28.88c-29.45,0-54.05-9.72-73.21-28.88
		c-19.16-19.16-28.88-43.18-28.88-72.64c0-29.45,9.72-53.47,28.88-72.35C1416.73,356.22,1441.33,346.79,1470.78,346.79z
		 M1470.78,367.95c-22.59,0-41.47,7.44-56.05,22.31c-14.87,15.16-22.31,34.03-22.31,57.19c0,23.16,7.44,42.32,22.31,57.48
		c14.58,15.16,33.46,22.59,56.05,22.59c22.59,0,41.18-7.43,56.05-22.59c14.58-15.16,22.02-34.32,22.02-57.48
		c0-23.16-7.44-42.04-22.02-57.19C1512.25,375.38,1493.37,367.95,1470.78,367.95z"/>
</g>
<g>
	<path class="st0" d="M177.31,192.13l23.74-14.61l-11.92-30.86l-27.42,5.14c-3.34-4.38-7.19-8.41-11.48-12.03l6.47-27.16
		l-30.24-13.39l-15.76,23.04c-5.57-0.74-11.14-0.88-16.63-0.42L79.44,98.08L48.58,110l5.14,27.4c-4.39,3.35-8.44,7.2-12.07,11.5
		l-27.12-6.46L1.14,172.68l22.98,15.72c-0.75,5.59-0.89,11.2-0.42,16.72L0,219.69l11.92,30.86l27.32-5.12
		c3.36,4.41,7.24,8.48,11.56,12.13l-6.44,27.04l30.24,13.39l15.7-22.94c5.61,0.75,11.22,0.88,16.75,0.41l14.57,23.67l30.86-11.92
		l-5.13-27.34c4.4-3.36,8.46-7.23,12.09-11.55l27.08,6.45l13.39-30.24l-23.01-15.74C177.65,203.22,177.78,197.63,177.31,192.13z
		 M99.48,242.9c-24.46-0.58-43.83-20.88-43.25-45.34s20.88-43.83,45.34-43.25c24.46,0.58,43.83,20.88,43.25,45.34
		C144.24,224.12,123.94,243.48,99.48,242.9z"/>
	<g>
		<path class="st0" d="M87.24,176.68c4.16,0,7.41,1.48,9.76,4.45c2.79,3.52,4.19,9.35,4.19,17.49c0,8.13-1.41,13.96-4.22,17.52
			c-2.32,2.93-5.57,4.39-9.73,4.39c-4.18,0-7.55-1.61-10.11-4.82c-2.56-3.21-3.84-8.94-3.84-17.18c0-8.09,1.41-13.91,4.22-17.46
			C79.84,178.14,83.08,176.68,87.24,176.68z M87.24,183.5c-1,0-1.89,0.32-2.67,0.95c-0.78,0.63-1.39,1.77-1.82,3.41
			c-0.57,2.13-0.85,5.71-0.85,10.75s0.25,8.5,0.76,10.39c0.51,1.89,1.15,3.14,1.92,3.76c0.77,0.63,1.66,0.94,2.65,0.94
			s1.88-0.32,2.67-0.95c0.78-0.63,1.39-1.77,1.82-3.41c0.57-2.11,0.85-5.68,0.85-10.72s-0.25-8.5-0.76-10.39
			c-0.51-1.88-1.15-3.14-1.92-3.78C89.12,183.82,88.24,183.5,87.24,183.5z"/>
		<path class="st0" d="M127.76,219.8h-8.23v-31.03c-3.01,2.81-6.55,4.89-10.63,6.24v-7.47c2.15-0.7,4.48-2.04,7-4
			s4.25-4.25,5.19-6.87h6.68V219.8z"/>
	</g>
	<g>
		<path class="st0" d="M226.69,284.82c17.31-1.87,29.88-17.47,28.01-34.79s-17.47-29.88-34.79-28.01c-1.17,0.13-2.31,0.32-3.44,0.56
			l4.34,5.49c13.89-1.37,26.31,8.71,27.81,22.61c1.51,13.98-8.6,26.54-22.59,28.05c-9.74,1.05-18.79-3.54-23.9-11.16l-3.87,5.07
			C204.76,281.08,215.36,286.04,226.69,284.82z"/>
		<path class="st0" d="M274.01,247.95c-0.42-3.91-1.28-7.66-2.51-11.22l12.17-12.56l-13.95-19.08l-15.9,7.51
			c-6.09-4.54-13.19-7.74-20.84-9.21l-5.16-16.85l-23.5,2.54l-1.05,16.8l4.35,5.51l1.47-0.63l1.01-16.15l13.35-1.44l4.76,15.54
			l3.61,0.69c6.59,1.26,12.93,4.07,18.34,8.11l2.95,2.2l14.66-6.93l7.93,10.84l-11.2,11.56l1.23,3.55c1.1,3.18,1.84,6.51,2.21,9.88
			c0.36,3.37,0.35,6.78-0.05,10.12l-0.43,3.65l13.31,9.22l-5.43,12.29l-15.65-3.93l-2.46,2.84c-4.42,5.1-10.02,9.19-16.18,11.83
			l-3.38,1.45l-1.33,16.19l-13.35,1.44l-4.43-15.56l-3.69-0.71c-6.57-1.27-12.9-4.08-18.3-8.11l-3.01-2.25l-14.55,7.23l-7.93-10.84
			l7.83-8.4l-5.47-3.1l-10.28,11.03l13.95,19.08l15.8-7.85c6.08,4.54,13.17,7.74,20.8,9.22l4.82,16.9l23.5-2.54l1.44-17.56
			c7.16-3.07,13.42-7.71,18.4-13.45l17.01,4.27l9.55-21.62l-14.44-10C274.4,255.7,274.43,251.85,274.01,247.95z"/>
	</g>
</g>
<g>
</g>
<g>
</g>
<g>
</g>
<g>
</g>
<g>
</g>
<g>
</g>
<g>
</g>
<g>
</g>
<g>
</g>
<g>
</g>
<g>
</g>
<g>
</g>
<g>
</g>
<g>
</g>
<g>
</g>
</svg>
